<?xml version="1.0" encoding="UTF-8"?><svg xmlns="http://www.w3.org/2000/svg" viewBox="0 0 548.32 336.66"><defs><style>.d{fill:#1a1e50;}.e{fill:#008cff;}</style></defs><g id="a"/><g id="b"><g id="c"><g><g><polygon class="e" points="326.43 0 326.43 0 326.43 0 307.57 0 307.57 47.74 277.61 0 264.73 0 264.73 17.69 307.57 86.02 326.43 86.02 326.43 35.37 358.28 90.54 316.22 163.39 295.57 163.39 295.57 181.08 326.43 181.08 378.71 90.54 326.43 0"/><polygon class="e" points="221.89 95.06 221.89 145.7 190.04 90.54 232.1 17.69 253.18 17.69 253.18 0 221.89 0 169.61 90.54 221.89 181.08 240.76 181.08 240.76 133.34 270.71 181.08 283.6 181.08 283.6 163.39 240.76 95.06 221.89 95.06"/><polygon class="e" points="264.73 116.66 283.6 146.75 283.6 64.51 264.73 34.35 264.73 116.66"/></g><g><path class="e" d="M51.4,291.45h-11.84l-8.34-29.54-8.52,29.54H10.86L0,239.02H13.5l4.83,28.09,7.9-28.09h10.01l7.71,27.99,4.82-27.99h13.5l-10.86,52.43Zm-8.92-3.86h5.79l9.26-44.72h-5.51l-5.9,34.28h-3.37l-9.44-34.28h-4.15l-9.65,34.28h-3.36l-5.9-34.28H4.74l9.26,44.72h5.79l9.85-34.14h3.19l9.65,34.14Z"/><path class="e" d="M101.88,291.45h-26.58l-9.11-9.11v-34.21l9.11-9.11h26.58l9.11,9.11v34.21l-9.11,9.11Zm-24.98-3.86h23.38l6.85-6.85v-31.02l-6.85-6.85h-23.38l-6.85,6.85v31.02l6.85,6.85Zm19.99-4.19h-16.59l-4.67-4.67v-27l4.67-4.67h16.59l4.67,4.67v27l-4.67,4.67Zm-14.99-3.86h13.39l2.41-2.41v-23.8l-2.41-2.41h-13.39l-2.41,2.41v23.8l2.41,2.41Z"/><path class="e" d="M160.86,291.45h-13.29v-15.14l-3.1-3.46h-12.34v18.6h-13.29v-52.43h33.2l8.55,8.63v16.29l-3.99,4.05,4.27,4.68v18.77Zm-9.44-3.86h5.58v-13.43l-5.72-6.28,5.45-5.53v-13.13l-6.3-6.36h-27.73v44.72h5.58v-18.6h17.92l5.23,5.84v12.76Zm-3.7-22.51h-19.45v-18.15h19.45l3.56,3.56v11.03l-3.56,3.56Zm-15.59-3.86h14l1.3-1.3v-7.84l-1.3-1.3h-14v10.44Z"/><path class="e" d="M206.3,291.45h-37.58v-52.43h13.29v40.6h24.29v11.84Zm-33.73-3.86h29.87v-4.13h-24.29v-40.6h-5.58v44.72Z"/><path class="e" d="M247.97,291.45h-33.81v-52.43h33.81l9.46,9.46v33.52l-9.46,9.46Zm-29.96-3.86h28.36l7.2-7.2v-30.32l-7.2-7.2h-28.36v44.72Zm25.31-4.19h-19.73v-36.33h19.73l4.67,4.67v27l-4.67,4.67Zm-15.87-3.86h14.28l2.41-2.41v-23.8l-2.41-2.41h-14.28v28.62Z"/><path class="e" d="M265.27,239.09h10.17v52.35h-10.17v-52.35Z"/><path class="e" d="M298.93,247.69h-15.63v-8.6h41.43v8.6h-15.63v43.75h-10.17v-43.75Z"/><path class="e" d="M332.59,239.09h9.42l15.56,33.81h.15l15.63-33.81h9.42v52.35h-9.8v-31.86h-.15l-12.04,24.53h-6.28l-11.97-24.53h-.15v31.86h-9.8v-52.35Z"/><path class="e" d="M390.62,239.09h37.84v8.6h-27.67v13.24h25.5v8.45h-25.5v13.46h27.67v8.6h-37.84v-52.35Z"/><path class="e" d="M436.32,239.09h33.51l8.98,8.98v34.4l-8.98,8.98h-33.51v-52.35Zm28.5,43.68l3.81-3.81v-27.37l-3.81-3.81h-18.32v35h18.32Z"/><path class="e" d="M486.66,239.09h10.17v52.35h-10.17v-52.35Z"/><path class="e" d="M519.9,239.09h9.27l19.15,52.35h-10.32l-4.26-11.59h-18.4l-4.26,11.59h-10.32l19.15-52.35Zm11.59,32.38l-6.96-19.89h-.15l-6.73,19.89h13.84Z"/></g><g><path class="d" d="M0,318.28H2.02l2.94,15.55h.05l4.41-15.55h1.94l4.25,15.55h.05l2.86-15.55h2.02l-3.7,18.39h-2.15l-4.28-15.55h-.05l-4.52,15.55H3.7l-3.7-18.39Z"/><path class="d" d="M28.45,333.77v-12.61l2.89-2.89h8.3l2.89,2.89v12.61l-2.89,2.89h-8.3l-2.89-2.89Zm10.3,1.1l1.79-1.76v-11.29l-1.79-1.76h-6.51l-1.79,1.76v11.29l1.79,1.76h6.51Z"/><path class="d" d="M64.74,331.04v5.62h-2v-5.07l-2.52-2.65h-6.51v7.72h-2v-18.39h10.51l2.42,2.42v5.81l-2.13,2.13,2.23,2.42Zm-11.03-3.83h7.64l1.31-1.29v-4.62l-1.31-1.29h-7.64v7.2Z"/><path class="d" d="M74.07,318.28h2v16.63h9.35v1.76h-11.35v-18.39Z"/><path class="d" d="M93.43,318.28h10.61l2.89,2.89v12.61l-2.89,2.89h-10.61v-18.39Zm9.72,16.6l1.79-1.76v-11.29l-1.79-1.76h-7.72v14.81h7.72Z"/><path class="d" d="M114.81,318.28h2.02l2.94,15.55h.05l4.41-15.55h1.94l4.25,15.55h.05l2.86-15.55h2.02l-3.7,18.39h-2.15l-4.28-15.55h-.05l-4.52,15.55h-2.15l-3.7-18.39Z"/><path class="d" d="M143.91,318.28h2v18.39h-2v-18.39Z"/><path class="d" d="M155.49,318.28h10.61l2.89,2.89v12.61l-2.89,2.89h-10.61v-18.39Zm9.72,16.6l1.79-1.76v-11.29l-1.79-1.76h-7.72v14.81h7.72Z"/><path class="d" d="M178.19,318.28h11.87v1.79h-9.88v6.46h9.11v1.79h-9.11v6.57h9.88v1.79h-11.87v-18.39Z"/><path class="d" d="M210.52,318.28h2v18.39h-2v-18.39Z"/><path class="d" d="M222.1,318.28h1.94l9.59,15.13h.05v-15.13h1.89v18.39h-1.94l-9.59-15.13h-.05v15.13h-1.89v-18.39Z"/><path class="d" d="M245.03,318.28h11.61v1.79h-9.61v6.62h8.35v1.79h-8.35v8.19h-2v-18.39Z"/><path class="d" d="M264.39,333.77v-12.61l2.89-2.89h8.3l2.89,2.89v12.61l-2.89,2.89h-8.3l-2.89-2.89Zm10.3,1.1l1.79-1.76v-11.29l-1.79-1.76h-6.51l-1.79,1.76v11.29l1.79,1.76h6.51Z"/><path class="d" d="M303.58,320.04h-5.57v-1.76h13.13v1.76h-5.57v16.63h-2v-16.63Z"/><path class="d" d="M319.29,318.28h11.87v1.79h-9.88v6.46h9.11v1.79h-9.11v6.57h9.88v1.79h-11.87v-18.39Z"/><path class="d" d="M339.56,333.77v-12.61l2.89-2.89h7.88l2.78,2.78v1.68h-2v-1.02l-1.68-1.65h-6.09l-1.79,1.76v11.29l1.79,1.76h6.09l1.68-1.65v-1.02h2v1.68l-2.78,2.78h-7.88l-2.89-2.89Z"/><path class="d" d="M361.65,318.28h2v8.33h9.51v-8.33h2v18.39h-2v-8.27h-9.51v8.27h-2v-18.39Z"/><path class="d" d="M395.88,334.25v-1.68h1.97v1.02l1.26,1.29h6.3l1.31-1.34v-4.12l-1.31-1.29h-7.07l-2.42-2.42v-5.02l2.42-2.42h7.72l2.42,2.42v1.71h-1.94v-1.05l-1.31-1.29h-6.01l-1.31,1.29v3.7l1.31,1.29h7.07l2.42,2.42v5.44l-2.47,2.47h-7.93l-2.42-2.42Z"/><path class="d" d="M417.62,318.28h11.87v1.79h-9.88v6.46h9.11v1.79h-9.11v6.57h9.88v1.79h-11.87v-18.39Z"/><path class="d" d="M451.19,331.04v5.62h-2v-5.07l-2.52-2.65h-6.51v7.72h-2v-18.39h10.51l2.42,2.42v5.81l-2.13,2.13,2.23,2.42Zm-11.03-3.83h7.64l1.31-1.29v-4.62l-1.31-1.29h-7.64v7.2Z"/><path class="d" d="M458.68,318.28h2.08l5.46,16h.05l5.46-16h2.08l-6.49,18.39h-2.15l-6.49-18.39Z"/><path class="d" d="M481.95,318.28h2v18.39h-2v-18.39Z"/><path class="d" d="M493.27,333.77v-12.61l2.89-2.89h7.88l2.78,2.78v1.68h-2v-1.02l-1.68-1.65h-6.09l-1.79,1.76v11.29l1.79,1.76h6.09l1.68-1.65v-1.02h2v1.68l-2.78,2.78h-7.88l-2.89-2.89Z"/><path class="d" d="M515.36,318.28h11.87v1.79h-9.88v6.46h9.11v1.79h-9.11v6.57h9.88v1.79h-11.87v-18.39Z"/><path class="d" d="M535.51,334.25v-1.68h1.97v1.02l1.26,1.29h6.3l1.31-1.34v-4.12l-1.31-1.29h-7.07l-2.42-2.42v-5.02l2.42-2.42h7.72l2.42,2.42v1.71h-1.94v-1.05l-1.31-1.29h-6.01l-1.31,1.29v3.7l1.31,1.29h7.07l2.42,2.42v5.44l-2.47,2.47h-7.93l-2.42-2.42Z"/></g><rect class="d" y="307.92" width="548.32" height="1.39"/></g></g></g></svg>